<?xml version="1.0" encoding="UTF-8" standalone="no"?>
<!-- Created with Inkscape (http://www.inkscape.org/) -->

<svg
   width="67.747131mm"
   height="67.747131mm"
   viewBox="0 0 67.74713 67.747132"
   version="1.1"
   id="svg5"
   xmlns="http://www.w3.org/2000/svg"
   xmlns:svg="http://www.w3.org/2000/svg">
  <defs
     id="defs2" />
  <path
     id="path635"
     style="font-size:3.175px;fill:#ffffff;fill-opacity:1;stroke-width:2.31229"
     d="M 33.873385 0 A 33.873566 33.873566 0 0 0 0 33.873385 A 33.873566 33.873566 0 0 0 2.7760579 47.272567 C 6.7054475 47.272244 15.079993 47.253972 18.59163 47.272567 C 20.939805 47.272567 22.667868 46.826082 23.77581 45.933114 C 24.900288 45.040145 25.462528 43.84125 25.462528 42.336434 C 25.462528 40.980446 24.949897 39.831159 23.924638 38.888582 C 22.899378 37.946005 20.782708 36.829792 17.574638 35.53995 C 14.26735 34.200498 11.935705 32.670872 10.579716 30.951082 C 9.2237283 29.231292 8.5457316 27.164231 8.5457316 24.74991 C 8.5457316 21.723742 9.6206041 19.342487 11.770341 17.60616 C 13.920079 15.869834 16.805697 15.463656 20.427177 15.463656 C 23.899829 15.463656 23.315825 15.465206 27.129093 15.465206 L 27.127026 20.486605 C 23.905487 20.486605 22.808424 20.548617 20.278349 20.548617 C 18.360122 20.548617 16.90491 20.970297 15.912724 21.813656 C 14.920538 22.640478 14.424443 23.278167 14.424443 24.650692 C 14.424443 25.59327 14.62288 26.403557 15.019755 27.081551 C 15.41663 27.743008 16.069821 28.371395 16.979325 28.966707 C 17.888829 29.56202 19.525942 30.347503 21.890653 31.323153 C 24.55302 32.431095 26.504326 33.464625 27.74456 34.423739 C 28.984792 35.382853 29.8943 36.465993 30.473075 37.673153 C 31.051851 38.880312 31.341239 40.302452 31.341239 41.939559 C 31.341239 45.164165 30.175417 47.694248 27.843778 49.529793 C 25.512141 51.365338 22.295793 52.283114 18.194755 52.283114 L 5.4539307 52.283114 A 33.873566 33.873566 0 0 0 33.873385 67.747286 A 33.873566 33.873566 0 0 0 67.747286 33.873385 A 33.873566 33.873566 0 0 0 33.873385 0 z M 28.519189 15.522567 L 44.247945 15.522567 C 50.019159 15.522567 54.508824 17.077 57.71689 20.185848 C 60.924957 23.294696 62.529 27.668606 62.529 33.307528 C 62.529 39.293714 60.867084 43.874331 57.543258 47.049325 C 54.219441 50.207781 49.432107 51.78702 43.181344 51.78702 L 38.337195 51.78702 C 35.697597 51.78702 34.91847 50.997598 34.36121 50.440332 C 33.863361 49.942476 33.036226 49.110617 33.036226 46.53101 L 33.036226 25.582935 C 33.036226 25.056048 33.040742 24.783031 32.783012 24.522017 C 32.518562 24.254184 32.250356 24.250716 31.748966 24.250716 L 28.519189 24.250716 L 36.000387 17.734835 L 39.15885 20.483504 L 41.114803 20.483504 L 36.013822 16.125114 L 30.816724 20.486605 L 28.519189 20.486605 L 28.519189 15.522567 z M 41.114803 20.483504 L 41.11842 20.486605 L 39.162467 20.486605 L 43.487785 24.250716 L 40.298315 24.250716 C 39.770876 24.250716 39.503905 24.257573 39.239465 24.522017 C 38.971626 24.789821 38.964547 25.052459 38.964547 25.582418 L 38.964547 44.173531 C 38.964547 45.049412 38.885743 45.643985 39.505082 46.263326 C 40.131722 46.88997 40.73709 46.801278 41.623299 46.801278 L 43.181344 46.801278 C 51.912575 46.801278 56.278219 42.369489 56.278219 33.505965 C 56.278219 24.824342 52.218499 20.483504 44.099117 20.483504 L 41.531832 20.483504 L 41.114803 20.483504 z M 39.162467 20.486605 L 39.15885 20.483504 L 38.964547 20.483504 L 38.964547 20.485055 L 38.964547 20.486605 L 39.162467 20.486605 z " />
  <g
     id="layer1"
     transform="translate(-23.20064,-42.956695)">
    <g
       aria-label="SxncD"
       id="text790"
       style="font-size:3.175px;fill:#000000;fill-opacity:1;stroke-width:0.264583"
       transform="translate(0.05386577,0.01057843)" />
  </g>
</svg>
